<svg id="Capa_1" enable-background="new 0 0 512 512" height="512" viewBox="0 0 512 512" width="512" xmlns="http://www.w3.org/2000/svg"><path d="m512 256c0-20.95-13.639-38.763-32.5-45.059v-59.882c18.861-6.296 32.5-24.109 32.5-45.059s-13.639-38.763-32.5-45.059v-60.941h-30v60.941c-14.142 4.721-25.338 15.917-30.059 30.059h-42.543c-30.779 0-58.896 16.871-73.38 44.028l-24.875 46.64-69.908-65.538c-17.284-16.206-39.852-25.13-63.545-25.13h-52.631c-4.721-14.142-15.917-25.338-30.059-30.059v-60.941h-30v60.941c-18.861 6.296-32.5 24.109-32.5 45.059s13.639 38.763 32.5 45.059v59.882c-18.861 6.296-32.5 24.109-32.5 45.059s13.639 38.763 32.5 45.059v59.882c-18.861 6.296-32.5 24.109-32.5 45.059s13.639 38.763 32.5 45.059v60.941h30v-60.941c14.142-4.721 25.338-15.917 30.059-30.059h42.543c30.779 0 58.896-16.871 73.38-44.028l26.475-49.64 68.308 64.038c17.285 16.205 39.853 25.129 63.546 25.129h51.374c3.681 16.244 15.704 29.348 31.316 34.559v60.942h30v-60.941c18.86-6.296 32.499-24.109 32.499-45.059s-13.639-38.763-32.5-45.059v-59.882c18.861-6.296 32.5-24.109 32.5-45.059zm-47.5 17.5c-9.649 0-17.5-7.851-17.5-17.5s7.851-17.5 17.5-17.5 17.5 7.851 17.5 17.5-7.851 17.5-17.5 17.5zm0-185c9.649 0 17.5 7.851 17.5 17.5s-7.851 17.5-17.5 17.5-17.5-7.851-17.5-17.5 7.851-17.5 17.5-17.5zm-134.511 60.646c9.259-17.361 27.234-28.146 46.909-28.146h42.543c4.721 14.142 15.917 25.338 30.059 30.059v59.882c-14.142 4.721-25.338 15.917-30.059 30.059h-52.631c-16.043 0-31.324-6.043-43.028-17.015l-22.472-21.067zm-141.771-11.131 75.805 71.067-37.112 69.585-18.174-17.038c-17.285-16.205-39.853-25.129-63.546-25.129h-54.396c-5.426-11.999-15.69-21.351-28.295-25.559v-59.882c14.142-4.721 25.338-15.917 30.059-30.059h52.631c16.043 0 31.324 6.043 43.028 17.015zm-140.718-49.515c9.649 0 17.5 7.851 17.5 17.5s-7.851 17.5-17.5 17.5-17.5-7.851-17.5-17.5 7.851-17.5 17.5-17.5zm0 150c9.649 0 17.5 7.851 17.5 17.5s-7.851 17.5-17.5 17.5-17.5-7.851-17.5-17.5 7.851-17.5 17.5-17.5zm0 185c-9.649 0-17.5-7.851-17.5-17.5s7.851-17.5 17.5-17.5 17.5 7.851 17.5 17.5-7.851 17.5-17.5 17.5zm134.511-60.646c-9.259 17.361-27.234 28.146-46.909 28.146h-42.543c-4.721-14.142-15.917-25.338-30.059-30.059v-59.882c15.612-5.211 27.635-18.315 31.316-34.559h51.374c16.043 0 31.324 6.043 43.028 17.015l24.072 22.567zm141.771 6.631-74.205-69.567 37.112-69.585 16.574 15.538c17.286 16.205 39.854 25.129 63.547 25.129h52.631c4.721 14.142 15.917 25.338 30.059 30.059v59.882c-12.606 4.208-22.87 13.56-28.295 25.559h-54.395c-16.043 0-31.324-6.043-43.028-17.015zm140.718 54.015c-9.649 0-17.5-7.851-17.5-17.5s7.851-17.5 17.5-17.5 17.5 7.851 17.5 17.5-7.851 17.5-17.5 17.5z"/></svg>