<?xml version="1.0" encoding="iso-8859-1"?>
<!-- Generator: Adobe Illustrator 19.0.0, SVG Export Plug-In . SVG Version: 6.00 Build 0)  -->
<svg version="1.1" id="Capa_1" xmlns="http://www.w3.org/2000/svg" xmlns:xlink="http://www.w3.org/1999/xlink" x="0px" y="0px"
	 viewBox="0 0 480.939 480.939" style="enable-background:new 0 0 480.939 480.939;" xml:space="preserve">
<g>
	<g>
		<path d="M384.779,248.804c4.418,26.139,29.19,43.747,55.329,39.329s43.747-29.19,39.329-55.329s-29.19-43.747-55.329-39.329
			c-20.143,3.405-35.924,19.186-39.329,39.329l-57.127,0.003c-1.589-17.647-8.492-34.396-19.798-48.038l101.123-93.9
			c23.387,12.988,52.874,4.558,65.862-18.829c12.988-23.387,4.558-52.874-18.829-65.862s-52.874-4.558-65.862,18.829
			c-10.002,18.011-7.517,40.378,6.195,55.754l-99.791,92.663c-13.713-11.542-30.636-18.598-48.487-20.215V96.076
			c26.139-4.422,43.743-29.197,39.321-55.335c-4.422-26.139-29.197-43.743-55.335-39.321c-26.139,4.422-43.743,29.197-39.321,55.335
			c3.408,20.143,19.191,35.922,39.335,39.324v57.13c-17.856,1.615-34.786,8.671-48.502,20.216L83.771,80.762
			c17.474-19.701,15.669-49.837-4.032-67.311C60.038-4.023,29.902-2.217,12.428,17.484C-5.046,37.184-3.24,67.32,16.46,84.794
			c15.102,13.395,37.002,15.828,54.676,6.075l101.123,93.9c-11.306,13.642-18.21,30.392-19.798,48.039H95.335
			c-4.417-26.139-29.187-43.748-55.325-39.331c-26.139,4.417-43.748,29.187-39.331,55.325c4.417,26.139,29.187,43.748,55.325,39.331
			c20.143-3.404,35.924-19.183,39.33-39.325h57.128c1.801,19.671,10.195,38.156,23.821,52.457l-96.036,96.036
			c-19.553-17.529-49.614-15.887-67.143,3.666c-17.529,19.553-15.887,49.614,3.666,67.143c19.553,17.529,49.614,15.887,67.143-3.666
			c13.444-14.997,15.981-36.837,6.332-54.516l98.086-98.086c12.803,9.39,27.922,15.114,43.733,16.558v57.126
			c-26.139,4.414-43.751,29.183-39.336,55.322c4.414,26.139,29.183,43.751,55.322,39.336c26.139-4.414,43.751-29.183,39.336-55.322
			c-3.402-20.143-19.18-35.926-39.322-39.334v-57.129c17.85-1.618,34.774-8.674,48.487-20.215l99.791,92.663
			c-17.474,19.701-15.669,49.837,4.032,67.311c19.701,17.474,49.837,15.669,67.311-4.032c17.474-19.701,15.669-49.837-4.032-67.311
			c-15.102-13.395-37.002-15.828-54.676-6.075l-101.123-93.9c11.305-13.64,18.207-30.387,19.797-48.031L384.779,248.804z
			 M432.057,208.804c17.673,0,32,14.327,32,32s-14.327,32-32,32c-17.673,0-32-14.327-32-32
			C400.076,223.139,414.391,208.823,432.057,208.804z M432.057,16.804c17.673,0,32,14.327,32,32s-14.327,32-32,32
			c-17.673,0-32-14.327-32-32C400.076,31.139,414.391,16.823,432.057,16.804z M48.057,80.804c-17.665-0.019-31.981-14.335-32-32
			c0-17.673,14.327-32,32-32s32,14.327,32,32S65.73,80.804,48.057,80.804z M48.057,272.804c-17.673,0-32-14.327-32-32
			s14.327-32,32-32s32,14.327,32,32C80.038,258.469,65.722,272.785,48.057,272.804z M48.057,464.804c-17.673,0-32-14.327-32-32
			c0-17.673,14.327-32,32-32s32,14.327,32,32C80.038,450.469,65.722,464.785,48.057,464.804z M432.057,400.804
			c17.665,0.019,31.981,14.335,32,32c0,17.673-14.327,32-32,32c-17.673,0-32-14.327-32-32
			C400.057,415.131,414.384,400.804,432.057,400.804z M208.057,48.804c-0.002-17.673,14.323-32.002,31.996-32.004
			c17.673-0.002,32.002,14.323,32.004,31.996c0.002,17.673-14.323,32.002-31.996,32.004c-0.001,0-0.003,0-0.004,0
			C222.393,80.781,208.078,66.468,208.057,48.804z M272.057,432.804c0,17.673-14.327,32-32,32c-17.673,0-32-14.327-32-32
			c0-17.673,14.327-32,32-32C257.722,400.823,272.038,415.139,272.057,432.804z M240.057,312.804c-39.765,0-72-32.236-72-72
			c0.045-39.746,32.254-71.955,72-72c39.765,0,72,32.235,72,72C312.057,280.568,279.821,312.804,240.057,312.804z"/>
	</g>
</g>
<g>
</g>
<g>
</g>
<g>
</g>
<g>
</g>
<g>
</g>
<g>
</g>
<g>
</g>
<g>
</g>
<g>
</g>
<g>
</g>
<g>
</g>
<g>
</g>
<g>
</g>
<g>
</g>
<g>
</g>
</svg>
