<svg id="Capa_1" enable-background="new 0 0 512 512" height="512" viewBox="0 0 512 512" width="512" xmlns="http://www.w3.org/2000/svg"><g><path d="m256 176.017c12.852 0 24.833-3.764 34.931-10.226l39.172 48.108c1.482 1.821 3.642 2.765 5.82 2.765 1.664 0 3.34-.551 4.73-1.684 3.212-2.615 3.696-7.339 1.08-10.551l-39.178-48.115c11.403-11.716 18.446-27.696 18.446-45.298 0-35.842-29.16-65.002-65.002-65.002s-65.002 29.16-65.002 65.002c0 17.602 7.043 33.582 18.446 45.298l-74.158 91.075c-7.118-4.158-15.386-6.553-24.208-6.553-3.849 0-7.681.457-11.391 1.356-4.025.977-6.497 5.032-5.52 9.057.976 4.025 5.033 6.498 9.057 5.52 2.553-.62 5.195-.934 7.854-.934 18.284 0 33.16 14.875 33.16 33.16s-14.876 33.16-33.16 33.16-33.16-14.875-33.16-33.16c0-5.014 1.088-9.826 3.233-14.305 1.79-3.735.212-8.214-3.523-10.004-3.732-1.79-8.214-.213-10.004 3.523-3.123 6.518-4.706 13.511-4.706 20.786 0 15.824 7.673 29.888 19.493 38.672l-32.398 62.008c-3.507-1.04-7.214-1.607-11.054-1.607-21.48 0-38.958 17.477-38.958 38.959s17.478 38.959 38.96 38.959 38.959-17.477 38.959-38.959c0-12.279-5.716-23.242-14.62-30.389l32.402-62.016c8.432 2.884 20.36 3.631 30.755 0l32.402 62.016c-8.904 7.146-14.62 18.109-14.62 30.389 0 21.482 17.477 38.959 38.959 38.959s38.96-17.477 38.96-38.959-17.478-38.959-38.96-38.959c-3.839 0-7.547.567-11.054 1.607l-32.398-62.008c11.819-8.784 19.493-22.848 19.493-38.672 0-12.338-4.668-23.602-12.325-32.133l74.155-91.072c10.099 6.463 22.08 10.227 34.932 10.227zm-217.04 274.97c-13.212 0-23.96-10.748-23.96-23.959s10.748-23.959 23.96-23.959c13.211 0 23.959 10.748 23.959 23.959s-10.748 23.959-23.959 23.959zm168.198-23.96c0 13.211-10.748 23.959-23.96 23.959-13.211 0-23.959-10.748-23.959-23.959s10.748-23.959 23.959-23.959c13.212 0 23.96 10.748 23.96 23.959zm48.842-366.014c15.847 0 29.986 7.419 39.153 18.956l-39.153 39.155-17.836-17.837c-2.929-2.929-7.677-2.93-10.607 0-2.929 2.929-2.929 7.678 0 10.606l23.14 23.14c1.407 1.407 3.314 2.197 5.304 2.197s3.896-.79 5.304-2.197l41.527-41.527c2.045 5.453 3.171 11.351 3.171 17.509 0 27.571-22.431 50.002-50.002 50.002s-50.002-22.431-50.002-50.002 22.43-50.002 50.001-50.002z"/><path d="m473.04 388.068c-3.839 0-7.547.567-11.054 1.607l-32.398-62.008c11.819-8.784 19.493-22.848 19.493-38.672 0-26.555-21.604-48.16-48.16-48.16-8.821 0-17.089 2.395-24.208 6.553l-11.51-14.136c-2.613-3.211-7.337-3.696-10.551-1.081-3.212 2.615-3.696 7.339-1.08 10.551l11.513 14.14c-7.657 8.53-12.325 19.795-12.325 32.133 0 15.824 7.673 29.888 19.493 38.672l-32.398 62.008c-3.507-1.04-7.214-1.607-11.054-1.607-21.482 0-38.96 17.477-38.96 38.959 0 19.169 14.281 35.737 33.22 38.539.372.055.742.082 1.107.082 3.656 0 6.858-2.678 7.409-6.404.606-4.097-2.224-7.911-6.321-8.517-11.639-1.721-20.415-11.91-20.415-23.7 0-13.211 10.748-23.959 23.96-23.959 13.211 0 23.959 10.748 23.959 23.959 0 4.398-1.199 8.695-3.468 12.426-2.152 3.539-1.027 8.153 2.512 10.305 3.539 2.151 8.153 1.028 10.305-2.512 3.697-6.08 5.651-13.072 5.651-20.219 0-12.279-5.716-23.242-14.62-30.389l32.402-62.016c4.833 1.633 10.001 2.532 15.378 2.532s10.545-.899 15.378-2.532l32.402 62.016c-8.904 7.146-14.62 18.109-14.62 30.389 0 21.482 17.477 38.959 38.959 38.959s38.961-17.476 38.961-38.959-17.478-38.959-38.96-38.959zm-105.279-99.073c0-18.284 14.876-33.16 33.16-33.16s33.16 14.875 33.16 33.16-14.876 33.16-33.16 33.16-33.16-14.875-33.16-33.16zm105.279 161.992c-13.211 0-23.959-10.748-23.959-23.959s10.748-23.959 23.959-23.959c13.212 0 23.96 10.748 23.96 23.959s-10.748 23.959-23.96 23.959z"/></g></svg>