<svg id="Capa_1" enable-background="new 0 0 509.654 509.654" height="512" viewBox="0 0 509.654 509.654" width="512" xmlns="http://www.w3.org/2000/svg"><g><path d="m116.353 307.134c-3.148-2.692-7.882-2.323-10.575.823l-9.768 11.416c-11.447 13.381-17.751 30.446-17.751 48.053v134.728c0 4.143 3.357 7.5 7.5 7.5s7.5-3.357 7.5-7.5v-134.728c0-14.034 5.025-27.636 14.149-38.301l9.768-11.416c2.692-3.147 2.324-7.882-.823-10.575z"/><path d="m423.896 95.868c4.143 0 7.5-3.357 7.5-7.5v-31.909c0-31.132-25.329-56.459-56.46-56.459h-136.748c-31.132 0-56.459 25.327-56.459 56.459v191.215h-12.825c-7.341 0-14.288 3.199-19.06 8.776l-23.273 27.202c-2.692 3.147-2.324 7.882.823 10.575 1.414 1.209 3.147 1.801 4.872 1.801 2.116 0 4.22-.891 5.703-2.624l23.273-27.203c1.918-2.241 4.71-3.527 7.661-3.527h12.825v39.263l-19.228 19.228c-2.929 2.93-2.929 7.678 0 10.607 2.93 2.928 7.678 2.928 10.607 0l47.026-47.026c3.136-3.137 7.306-4.864 11.741-4.864s8.605 1.728 11.742 4.864c3.136 3.136 4.863 7.306 4.863 11.741s-1.728 8.605-4.864 11.741l-43.107 43.107c-1.406 1.407-2.196 3.314-2.196 5.304v41.257c0 18.361-7.15 35.624-20.135 48.607-.005.005-.009.011-.015.017-1.348 1.356-2.182 3.224-2.182 5.287v50.348c0 4.143 3.357 7.5 7.5 7.5s7.5-3.357 7.5-7.5v-47.35c14.415-15.528 22.331-35.606 22.331-56.909v-.222c7.692 3.773 16.209 5.788 24.874 5.788h136.747c31.132 0 56.46-25.327 56.46-56.459v-226.672c0-4.143-3.357-7.5-7.5-7.5s-7.5 3.357-7.5 7.5v226.672c0 22.86-18.599 41.459-41.46 41.459h-136.744c-8.973 0-17.733-2.932-24.874-8.291v-20.426l40.911-40.91c5.969-5.97 9.257-13.907 9.257-22.349s-3.288-16.379-9.257-22.349c-5.97-5.969-13.907-9.257-22.349-9.257s-16.379 3.288-22.349 9.257l-12.799 12.799v-230.477c0-22.86 18.599-41.459 41.459-41.459h3.504l4.235 12.571c4.868 14.452 18.385 24.162 33.635 24.162h53.999c15.25 0 28.767-9.71 33.635-24.162l4.236-12.571h3.504c22.861 0 41.46 18.599 41.46 41.459v31.909c.001 4.143 3.358 7.5 7.501 7.5zm-70.915-73.086c-2.811 8.345-10.615 13.951-19.42 13.951h-53.999c-8.805 0-16.609-5.606-19.42-13.951l-2.621-7.782h98.083z"/><path d="m349.677 159.233c0-23.773-19.341-43.114-43.114-43.114s-43.115 19.341-43.115 43.114 19.342 43.115 43.115 43.115 43.114-19.341 43.114-43.115zm-71.23 0c0-15.502 12.612-28.114 28.115-28.114 15.502 0 28.114 12.612 28.114 28.114 0 15.503-12.612 28.115-28.114 28.115-15.502.001-28.115-12.612-28.115-28.115z"/><path d="m361.777 103.624c-14.927-14.822-34.727-22.886-55.781-22.754-19.21.137-37.671 7.358-51.984 20.335-3.069 2.782-3.302 7.525-.52 10.594 2.783 3.068 7.525 3.302 10.594.52 11.578-10.497 26.5-16.338 42.016-16.448.155-.001.31-.002.464-.002 16.844 0 32.683 6.523 44.643 18.399 12.071 11.986 18.72 27.955 18.72 44.966 0 29.442-19.97 54.783-48.559 61.623-3.066.732-5.724 2.734-7.288 5.489l-7.52 13.229-7.52-13.23c-1.567-2.756-4.224-4.756-7.284-5.486-13.716-3.282-26.12-11.221-34.927-22.354-9.073-11.472-13.787-25.29-13.631-39.962.083-7.796 1.603-15.435 4.518-22.704 1.542-3.844-.325-8.211-4.17-9.752-3.843-1.542-8.21.324-9.752 4.17-3.609 9.001-5.492 18.464-5.596 28.126-.189 17.884 5.8 35.438 16.867 49.428 10.557 13.347 25.308 22.981 41.678 27.255l10.129 17.82c1.977 3.477 5.688 5.637 9.688 5.637 3.999 0 7.711-2.16 9.688-5.637l10.129-17.819c34.555-8.985 58.549-39.945 58.549-75.832 0-21.039-8.222-40.788-23.151-55.611z"/><path d="m362.379 318.57h-91.432c-4.143 0-7.5 3.357-7.5 7.5s3.357 7.5 7.5 7.5h91.432c9.804 0 17.779-7.976 17.779-17.779v-21.479c0-9.804-7.976-17.779-17.779-17.779h-78.416c-4.143 0-7.5 3.357-7.5 7.5s3.357 7.5 7.5 7.5h78.416c1.532 0 2.779 1.247 2.779 2.779v21.479c0 1.532-1.247 2.779-2.779 2.779z"/></g></svg>